<svg height="571" viewBox="0 0 1310 571" width="1310" xmlns="http://www.w3.org/2000/svg" xmlns:xlink="http://www.w3.org/1999/xlink"><linearGradient id="a" x1="50%" x2="50%" y1="80.084899%" y2="3.237897%"><stop offset="0" stop-color="#627e7f"/><stop offset="1" stop-color="#8b9b9a"/></linearGradient><linearGradient id="b" x1="50%" x2="50%" y1="0%" y2="100%"><stop offset="0" stop-color="#ffea00"/><stop offset="1" stop-color="#bc9900"/></linearGradient><linearGradient id="c" x1="0%" x2="218.137436%" y1="100%" y2="-85.56261%"><stop offset="0" stop-color="#4c719e"/><stop offset="1" stop-color="#e7ffbc"/></linearGradient><g fill="none" fill-rule="evenodd"><path d="m733.357422 76.8283294c34.524739-43.142881 55.798502-66.421595 63.821289-69.8361419 12.03418-5.12182036 49.911862-3.19408599 57.898096-3.19408599 7.986235 0 7.808446 41.69213289 0 41.69213289-7.808445 0-33.216838 0-40.014307 0-4.531646 0-14.454823 10.4460317-29.769531 31.338095z" fill="url(#a)" stroke="#4a5656" stroke-width="5"/><path d="m712.242188 23.8652344c7.91927-1.7109375 15.838541-1.7109375 23.757812 0v65.9375h-23.757812c0-31.2174479 0-53.1966146 0-65.9375z" fill="url(#a)" stroke="#4a5656" stroke-width="5"/><path d="m126.554688 429.398438c97.597126 47.779163 172.625772 79.45234 225.085937 95.019531 47.436894 14.076569 115.798873 25.465892 205.085937 34.167969 93.980713 5.703124 178.0979 8.554687 252.351563 8.554687 109.967162 0 202.055205 5.801021 303.323545-22.90265s194.50845-94.845193 194.50845-158.644225-36.17776-95.342676-104.07809-139.953125c-45.26689-29.740299-120.1484-49.107487-224.64453-58.101562l-128.238281-7.925782c0-60.477873-3.158854-93.1562583-9.476563-98.035156-9.476562-7.3183466-172.421743-7.6311747-192.425781 0-13.336026 5.0874498-31.948151 39.083007-55.836376 101.986673-115.754644 7.649731-190.912108 14.846288-225.472393 21.589669-119.198629 23.257962-193.839195 43.571057-223.9217 60.939283l-76.4179685-78.554687-47.6445313 10.5c14.6171875 35.972378 28.4622396 72.32394 41.5351563 109.054687.9953006 2.796479-5.5411577 8.382416-19.609375 16.757813v37.605468c16.4216008 13.540349 24.6324012 21.585922 24.6324012 24.136719s-2.1249717 6.085229-6.3749152 10.603294l-53.68326725 72.494362 35.42578125 17.78125z" fill="url(#a)" stroke="#4a5656" stroke-width="6"/><path d="m600.543096 157.398718c137.899189-3.90731 221.75625-6.939286 251.571186-9.095927" stroke="#5a6969" stroke-width="5"/><g stroke="#4a5656"><path d="m322.714844 213c-19.503142 64.258175-29.846892 110.135209-31.03125 137.631104-4.245131 98.554329 18.21875 159.822021 18.21875 159.822021" stroke-width="7"/><path d="m142.645495 264.805482c-15.712433 58.336463-20.786359 113.625-15.22178 165.865613" stroke-width="7"/><path d="m563.565158 185c-19.503141 80.794435-29.846891 138.477511-31.03125 173.049226-4.24513 123.916395 18.21875 200.950774 18.21875 200.950774" stroke-width="7"/><path d="m757.539062 180.238281c22.91613 92.667227 33.782015 157.231061 32.597657 193.691503-1.776538 54.690663-19.384061 193.691503-19.384061 193.691503" stroke-width="7"/><path d="m986 188c31.5026 60.774198 47.25391 123.607532 47.25391 188.5 0 97.338703-34.040314 188.5-34.040314 188.5" stroke-width="7"/><path d="m1170.45997 228c21.04344 39.415026 31.56516 88.248359 31.56516 146.5 0 87.377461-17.71664 115.877707-26.51251 146.5" stroke-width="7"/><path d="m592.642069 183.345048 259.615745-3.870416" stroke-width="6"/><g fill="url(#b)" stroke-width="7" transform="translate(755 314)"><circle cx="298.5" cy="43.5" r="43.5"/><circle cx="170.5" cy="43.5" r="43.5"/><circle cx="43.5" cy="43.5" r="43.5"/></g><g fill="url(#b)" stroke-width="7" transform="translate(360 314)"><circle cx="298.5" cy="43.5" r="43.5"/><circle cx="170.5" cy="43.5" r="43.5"/><circle cx="43.5" cy="43.5" r="43.5"/></g><g fill="#6b7474" stroke-width="4"><circle cx="331" cy="234" r="6"/><circle cx="322" cy="275" r="6"/><circle cx="312" cy="316" r="6"/><circle cx="307" cy="404" r="6"/><circle cx="307" cy="359" r="6"/><circle cx="313" cy="446" r="6"/><circle cx="319" cy="489" r="6"/></g><g fill="#6b7474" stroke-width="4"><circle cx="154" cy="286" r="6"/><circle cx="146" cy="328" r="6"/><circle cx="142" cy="413" r="6"/><circle cx="143" cy="371" r="6"/></g><g fill="#6b7474" stroke-width="4"><circle cx="574" cy="212" r="6"/><circle cx="566" cy="249" r="6"/><circle cx="559" cy="287" r="6"/><circle cx="551" cy="460" r="6"/><circle cx="549" cy="419" r="6"/><circle cx="557" cy="500" r="6"/><circle cx="563" cy="538" r="6"/></g><g fill="#6b7474" stroke-width="4" transform="matrix(-1 0 0 1 810 202)"><circle cx="28" cy="6" r="6"/><circle cx="20" cy="45" r="6"/><circle cx="13" cy="85" r="6"/><circle cx="10" cy="264" r="6"/><circle cx="6" cy="224" r="6"/><circle cx="14" cy="303" r="6"/><circle cx="19" cy="342" r="6"/></g><g fill="#6b7474" stroke-width="4" transform="matrix(-1 0 0 1 1054 205)"><circle cx="38" cy="6" r="6"/><circle cx="23" cy="42" r="6"/><circle cx="13" cy="81" r="6"/><circle cx="10" cy="256" r="6"/><circle cx="6" cy="216" r="6"/><circle cx="18" cy="297" r="6"/><circle cx="29" cy="334" r="6"/></g><g fill="#6b7474" stroke-width="4" transform="matrix(-1 0 0 1 1226 258)"><circle cx="22" cy="6" r="6"/><circle cx="11" cy="48" r="6"/><circle cx="6" cy="93" r="6"/><circle cx="6" cy="137" r="6"/><circle cx="12" cy="183" r="6"/><circle cx="22" cy="229" r="6"/></g><ellipse cx="854.5" cy="24.5" fill="url(#c)" rx="6.5" ry="21.5" stroke-width="3"/></g></g></svg>