<svg height="1423" viewBox="0 0 1808 1423" width="1808" xmlns="http://www.w3.org/2000/svg" xmlns:xlink="http://www.w3.org/1999/xlink"><linearGradient id="a"><stop offset="0" stop-color="#fff"/><stop offset="1" stop-color="#f9f5d7"/></linearGradient><radialGradient id="b" cx="50%" cy="0%" gradientTransform="matrix(0 1 -.755687 0 .5 -.5)" r="100%" xlink:href="#a"/><radialGradient id="c" cx="50%" cy="0%" gradientTransform="matrix(0 1 -.764348 0 .5 -.5)" r="100%" xlink:href="#a"/><radialGradient id="d" cx="50%" cy="0%" gradientTransform="matrix(0 1 -.925266 0 .5 -.5)" r="100%" xlink:href="#a"/><radialGradient id="e" cx="50%" cy="0%" gradientTransform="matrix(0 1 -.885927 0 .5 -.5)" r="100%" xlink:href="#a"/><radialGradient id="f" cx="50%" cy="0%" gradientTransform="matrix(0 1 -.924008 0 .5 -.5)" r="100%" xlink:href="#a"/><radialGradient id="g" cx="50%" cy="0%" gradientTransform="matrix(0 1 -.865304 0 .5 -.5)" r="100%" xlink:href="#a"/><radialGradient id="h" cx="50%" cy="0%" gradientTransform="matrix(0 1 -.770693 0 .5 -.5)" r="100%" xlink:href="#a"/><g fill="none" fill-rule="evenodd" transform="translate(4 11)"><path d="m298.181892 1180.76844c-12.599411 34.13942-13.955963 61.92963-19.365308 75.82186-3.606231 9.26149-8.226343 16.4507-13.860338 21.56765-2.24403 5.6514.568375 9.33645 8.437217 11.05516s36.503196-1.43727 85.903062-9.46792c-28.602233-59.51595-44.325613-91.57732-47.17014-96.18411-4.26679-6.91018-1.345083-36.93207-13.944493-2.79264z" fill="#3f5f5f" fill-rule="evenodd"/><path d="m294.429295 1179.38351c4.875249-13.21 7.547406-18.16641 11.727213-18.59797 1.974492-.20386 3.595108.72088 4.67098 2.18828.601112.81987 1.022446 1.77853 1.379721 2.95047.463946 1.52184.777186 3.17568 1.260322 6.28051-.001083-.00696.241031 1.55831.310981 2.00249.642473 4.07966 1.183356 6.3324 1.751343 7.25227 2.963906 4.80012 18.59035 36.66383 47.371945 96.553l2.317507 4.8223-5.28095.8585c-50.188195 8.15881-78.779888 11.31008-87.398449 9.42762-10.031238-2.19102-14.588074-8.16177-11.301307-16.43921l.342116-.86159.686237-.62326c5.140482-4.66873 9.427443-11.33954 12.822229-20.05799 1.20962-3.10654 2.282335-7.17054 3.542916-13.19713.014592-.06976 3.97297-20.33888 5.552226-27.35826 2.796509-12.42976 6.021955-23.75733 10.24497-35.20003z" stroke="#000" stroke-width="8"/><path d="m8.57926086 860.078494c12.09846694 9.013181 24.68986694 16.2288 37.77419984 21.646857 22.1423344 3.162441 48.6860701-6.919958 66.0836533-3.250815 40.563526 11.068678 76.074467 16.603018 106.532822 16.603018-1.282336 15.865279.572707 24.671815 5.565129 26.419606 11.438885 2.944165 30.071697-.888222 55.898434-11.49716 6.56117 15.468728 15.551305 24.124739 26.970405 25.968033 74.577988 0 99.50385-24.499483 136.829289-34.111748 11.121908-5.060896 70.538954 0 119.510424 29.542134 27.994133 9.453475 109.695444 3.938466 161.778715 23.353525 52.083272 19.41506 56.675892 33.404229 78.378764 42.773746 21.702873 9.36952 14.078531 0 62.229886 17.92951 50.08231 6.60752 30.44076-4.41823 71.168985-4.41823 65.925543 16.19406 0 62.91123 59.612812 39.84365 59.612811-23.06758 30.390261-12.6709 57.290801-25.47028 21.61026-3.14523 26.27588-27.88465 54.84564-27.88465 28.41535 8.96176 47.87558 43.51958 63.99622 27.88465 67.64537-6.21393 99.58105-21.74142 141.98042-45.280282 22.99491-4.768444 22.13431-19.253511 24.54461-35.978672 24.27922 1.725259 48.88859 3.477026 73.82808 5.255299 6.59211 9.919085 10.89773 13.976665 12.91686 12.172741 6.94546-2.326225 13.67691-5.742532 20.08161-9.818122 15.06647 1.075848 30.25068 2.161148 45.55263 3.255902-20.45678 38.014233-43.91213 74.381314-70.36604 109.101244-25.47609 46.97591-23.5676 39.58893-55.30446 74.76343-21.1579 23.44967-49.96373 50.88615-86.4175 82.30945-89.97121 51.42287-155.99188 89.3852-198.062 113.88699-26.03106 21.44099-67.80955 40.88601-125.335452 58.33505-96.752158 1.35296-156.655805 4.89499-179.71094 10.6261-49.975812 8.74748-106.536672.7649-169.682581-23.94775-43.096569-2.96637-87.78508-23.21472-134.065533-60.74506-59.160135-18.82095-62.983128-18.56609-115.912453-37.75293-24.500678-13.28367-20.103814-18.16174-31.562927-42.20467-9.21629-24.50497-9.585295-35.45843-32.186066-65.05384-31.578906-5.15839-55.370062-25.18359-71.373466-60.07559-3.014546-9.43279.430806-26.14652 10.336057-50.14118 5.100603-12.3558-43.833428-29.20535-52.656999-32.63936-16.925971-6.58735-5.975379-4.54155-70.97741-30.47763-65.0020305-25.936081-98.80964696-101.607604-108.28888956-139.587177-.16927612-.678222 2.56281402-1.123485 8.19627042-1.335789zm7.62109794-.140844 812.0001482 48.441388c-475.579414-32.600187-746.24606-48.747311-812.0001329-48.441387z" fill="#d5eade" stroke="#000" stroke-width="8"/><path d="m1445.10893 952.569247c-6.01705 3.719284-12.31211 6.839375-18.79352 9.010179-1.91009 1.706508-5.86639-1.832511-11.86889-10.617058-25.43075-1.3342-50.51849-2.654152-75.26321-3.959854-2.00283 15.501862-2.47994 28.632288-24.15745 33.127544-42.39937 23.538862-74.33505 39.066352-141.98042 45.280282-16.12064 15.63493-35.58087-18.92289-63.99622-27.88465-28.56976 0-33.23538 24.73942-54.84564 27.88465-26.90054 12.79938 2.32201 2.4027-57.290801 25.47028-59.612812 23.06758 6.312731-23.64959-59.612812-39.84365-40.728225 0-21.086675 11.02575-71.168985 4.41823-48.151355-17.92951-40.527013-8.55999-62.229886-17.92951-21.702872-9.369517-26.295492-23.358686-78.378764-42.773746-52.083271-19.415059-133.784582-13.90005-161.778715-23.353525-48.97147-29.542134-108.388516-34.60303-119.510424-29.542134-37.325439 9.612265-62.251301 34.111748-136.829289 34.111748-11.4191-1.843294-20.409235-10.499305-26.970405-25.968033-25.826737 10.608938-44.459549 14.441325-55.898434 11.49716-4.992422-1.747791-6.847465-10.554327-5.565129-26.419606-30.458355 0-65.969296-5.53434-106.532822-16.603018-17.3975832-3.669143-43.9413189 6.413256-66.0836533 3.250815-10.507839-4.351163-20.6977628-9.861658-30.5697711-16.531484-10.00317577-1.462151-15.13674217-2.722013-15.40069916-3.779584-3.33130327-13.347214 46.14229026-63.690238 75.83188046-79.574735 29.6895901-15.884497 54.4854371-41.385223 90.6549971-67.141274 36.169561-25.756052 47.772052-46.754746 139.610043-120.837265 91.837992-74.08252 163.397841-107.938097 203.371963-104.98766 39.974122 2.950436 24.201946 4.247554 48.375187 3.689346s23.849364-9.310641 79.393796-6.639783c55.544431 2.670859 94.626015 6.639783 115.969839 2.950437 12.758431-2.205335 26.625412-27.473455 34.2762-60.167593 5.148363-22.000514 5.809366-48.478746 7.72719-69.352399 3.178554-34.595468 41.416492-68.59324 114.713815-101.993317 29.656784-11.562547 52.878463-27.210506 69.665039-46.943876 16.786575-19.73337 66.47133-89.790188 149.05427-210.17045416 10.3779 99.15800346 21.23365 171.76211016 32.56724 217.81231916 4.29845 17.465284 17.09414 36.876072 7.31186 52.471589-10.02932 15.989368-11.88507 34.809696-19.46651 48.402805-10.96671 19.662718-28.49533 39.78386-37.89449 60.621978-2.67813 5.937467-4.10359 14.994115-4.27637 27.169943h-17.76276l-5.58433 35.122431-41.1688 25.243699c27.44586-2.745032 44.81713-1.193127 52.1138 4.655713 7.29667 5.848841 8.97629 25.032422 5.03886 57.550744 53.44601 12.267825 90.7687 25.289702 111.96809 39.065631 16.01509 10.407038 38.52426 3.135676 54.92452 16.800082s35.10364 31.931319 45.77886 39.596051c26.29284 18.878057 41.00193 9.937293 79.36138 40.834084 18.00408 14.501476 27.44976 29.013352 44.76668 41.083197 19.35632 13.491304 52.14162 26.553768 65.41675 35.844052 10.45866 7.319245 22.8097-6.430849 37.81885-42.533056 5.74112-13.809373 22.12155-52.643814 46.5879-63.941816 76.8797-35.501297 144.33821-92.303291 202.37553-170.405984-8.8483 23.026738-13.27245 46.05223-13.27245 69.076476 0 34.53637 9.63828 40.173833 13.27245 71.439459s-9.40444 100.487751-19.59372 106.497892c-6.79286 4.006761-25.17977 8.392168-55.16074 13.15622-2.0327 5.20572 9.34128 12.526619 34.12195 21.962697 40.29051 15.341977-31.01804 90.559712-42.8164 93.010439-.99175 6.122484 10.8792 25.308311 34.69685 50.283554 3.96296 4.155569 7.76986 12.409032 11.42069 24.76039l-6.31915 9.9564 11.79638-1.216069c23.0294 29.721545 36.45131 46.110589 40.26573 49.167134 4.43389 3.552946-22.19878-.588601-52.06211 34.532776-55.34142 48.87511-122.92864 13.36978-172.09114-7.26508-13.24026-11.711767-21.2891-22.333932-39.18827-41.194704-15.68814-13.392905-29.69636-14.989422-42.02469-4.78955-15.73812-.82116-31.35169-1.637146-46.84072-2.447959z" fill="#3f5f5f" stroke="#000" stroke-width="8"/><path d="m1259.49395 910.993493c14.67819-.999027 30.83355 14.484659 48.46609 46.451058 8.2663 33.320899 18.74433 71.665059 31.43412 115.032459l-9.64077 21.5347 15.82883 1.21903c5.23783 27.23471 15.9506 44.92612 32.13831 53.07422 12.14957 1.1979 27.14462 7.1294 44.98514 17.79451 9.20271.45277 16.73802 1.7629 22.60592 3.93039 17.52777 9.18064 34.58228 16.95351 51.16355 23.3186-7.88697 15.32052-34.70574 22.00511-80.4563 20.05375-50.79543 15.14245-72.40136 19.16936-143.82293 5.3782-43.53509-8.61836-45.67312-8.99209-60.35093-16.48812-10.04483-15.67218-19.04814-34.57218-17.02683-78.46866-3.00073-18.15363 0-33.60249-2.02131-36.76746-2.02131-3.16496-17.91347-33.965-16.12561-51.72022-2.33593-22.24529-9.75153-50.194614-22.24678-83.847984" fill="#3f5f5f" stroke="#000" stroke-width="9"/><path d="m235.306515 1058.80954c17.182025 3.60084 44.093166-3.04419 64.930778 0 23.71498 3.46455 8.357718 6.84045 24.174405 13.0175 15.86518 6.19598 14.353689 6.92772 39.18933 11.72855 15.937286 3.08074 21.270646 1.98441 42.356524 4.03458 14.802729 1.43926 20.99231.43209 29.42069 2.94428 22.786685 6.79186 19.17088 13.26946 33.00944 15.66381 7.062711 1.22199-2.668389-5.11198 8.7931-8.43114 10.168126-2.9446 25.160487-5.88743 34.466129-4.09638 18.978389 3.65277 14.26462 16.26826 22.101934 14.98403 10.716702-1.75606 3.03891-18.76029 15.006097-21.0646 7.977304-1.53605 9.721413 9.45505 24.882885 13.38388 4.475128 1.15965 5.117357-2.43245 14.390315-3.20693 9.925532-.82898 20.025791-1.88478 24.006665 0 25.499408 12.07294 22.557006 24.82005 36.77837 29.01364 7.03553-4.37888 3.2967-10.85638 14.649349-25.80671 14.578465-5.77296 44.479924-9.13543 64.36576-7.30331 14.009806 8.88268 8.316746 9.69435 19.000954 14.98403 4.652268-2.45651 6.271061-6.1184 17.706063-16.83722 2.144783-2.01045 14.429768.83497 25.272047 0 7.643308-.58862 17.223992-5.164 23.060635-4.22738 17.593348 2.82324 12.619518 13.25294 17.436118 10.17695 12.737852-8.13465 11.633909-11.60843 18.42437-21.12803 2.654254-3.72102.602839-10.88883 9.933298-15.83098 14.355605-7.60387 50.526833-5.98782 66.755251-13.42033 28.405837-13.00969 21.786318-28.34395 21.786318-29.46263 0-.96372 8.780715 16.95216-21.786318 25.29783-15.761173 4.30324-38.330883 1.73788-70.870094 0-28.208003-1.50656-34.172286-1.89273-50.624334-6.48889-33.150397-9.26113-14.042586-13.50485-48.580555-21.22571-12.936828-2.89199-41.852583 3.05358-46.369038 0-11.197018-7.57032 22.597525-22.673661 14.942091-21.247789-10.58738 1.971964-19.850535 18.329489-51.427719 28.043459-6.886009 2.11831-10.341161-4.3789-25.498667-4.3789-30.799907 0-51.984721 6.86612-66.416159 4.3789-16.584988-2.85838 16.595283-15.91502 4.383307-15.0701-18.524148 1.28163-23.828353 12.74893-65.855555 19.32319-19.736382 3.08733-28.835807 0-57.671615 0-20.460953 0-37.262083 2.71471-40.921906 0-9.365399-6.94689 14.871464-11.94407 14.871464-19.32319-1.457797-.94426-20.434873 18.01038-21.437597 15.0701-2.175506-6.37922 15.824134-31.823122 15.081139-33.709094-.595613-1.511864-11.768059 22.246114-17.758355 26.913424-2.888882 2.25085 4.842778-16.216562 0-13.07709-14.26191 9.24569-6.577889 29.46139-38.209376 37.84741-13.869055 3.67691-40.557943-14.46206-52.79171-13.72156-12.08741.73164 18.118513 10.15742 4.149355 16.66584-8.38549 3.9069-25.228964 4.78268-48.858651 4.1648-32.669109-.85425-55.266684-9.51346-63.738942-7.10908" fill="#000"/><g transform="translate(301 1022)"><g><path d="m.34744924 35.1145683 25.67814236-5.7042858-1.6135293 19.3657256c-8.3558425.2051452-13.6960369-.4007366-16.02058323-1.8176454-2.32454632-1.4169089-5.0058896-5.3648403-8.04402983-11.8437944z" fill="url(#b)" fill-rule="evenodd"/><path d="m-1.80553806 34.0562791 29.49515126-6.5522174-1.8945402 22.7384439-1.3461951.0330506c-8.6456767.212261-14.1789894-.4155314-16.83811015-2.0363774-2.65477341-1.6181962-5.46395137-5.7543477-8.62141582-12.4877654z" stroke="#000" stroke-width="3"/></g><g><path d="m33.3838926 27.8988113 51.7088489-9.6069519c-.3611038 9.2003023-.3611038 16.1607289 0 20.8812798.3611038 4.720551 1.3375435 10.5246904 2.9293191 17.4124182-2.753037 5.2749673-11.8593983 4.5338515-27.319084-2.2233472s-24.5660471-15.5783317-27.319084-26.4633989z" fill="url(#c)" fill-rule="evenodd"/><path d="m31.5375491 26.7161735 55.1276953-10.242137-.0736569 1.8766513c-.3590292 9.1474441-.3590292 16.0566467-.0032155 20.7080415.3546855 4.6366477 1.3191041 10.3693315 2.8951684 17.1890756l.1248483.5402278-.2565419.4915481c-3.2967117 6.3166775-13.0915396 5.5195313-29.2496198-1.5429253-15.8471363-6.9265476-25.2902388-16.0738744-28.172544-27.4700475z" stroke="#000" stroke-width="3"/></g><g><path d="m94.9383911 15.4831544c8.1567719 21.5845744 16.4437169 34.6533465 24.8608349 39.2063163 12.625677 6.8294547 19.757088 7.5118098 27.728581 13.8292873 7.971493 6.3174776 12.50422 13.2785112 18.590591 13.2785112 4.05758 0 6.065846-1.6781941 6.024798-5.0345825v-58.2970756l-41.148793-1.6531717c-4.249326-.88619-8.439048-2.6096496-12.569165-5.1703788-4.130118-2.56072921-11.959067-1.2803646-23.4868469 3.8410938z" fill="url(#d)" fill-rule="evenodd"/><path d="m131.180299 15.3186978 42.462897 1.7059665v1.4409468l-.000112 58.2787322c.052131 4.2626375-2.688617 6.5529259-7.524686 6.5529259-2.108387 0-4.104138-.6911388-6.191548-2.0308991-2.374454-1.5239941-11.321417-9.9090694-11.422929-9.9961811-.642438-.5513075-1.274841-1.0742373-1.907777-1.5758442-.990905-.785301-1.989672-1.4971487-3.01893-2.1558173-2.326125-1.4885919-4.669671-2.6456993-8.184859-4.1234099-.007774-.003268-5.533446-2.2756424-7.318966-3.050833-3.117016-1.3532649-5.973285-2.7248441-8.987824-4.3554624-8.827549-4.7749794-17.274766-18.0965055-25.5503261-39.9954191l-.5009696-1.3256732 1.2951127-.575381c11.955838-5.31163211 20.188244-6.65797916 24.886278-3.7451346 3.946041 2.4465993 7.932989 4.0947578 11.964639 4.9514835z" stroke="#000" stroke-width="3"/></g><g><path d="m178.933009 17.8363937c27.452771-2.5298025 54.507432-6.3447492 81.163982-11.44484013 2.285194-.18626901 3.969573 1.28612218 5.053139 4.41717353-16.666108 46.3163604-27.36196 70.2994395-32.087557 71.9492373-10.85414 0-28.897329-21.6405235-54.129564-64.9215707z" fill="url(#e)" fill-rule="evenodd"/><path d="m178.795365 16.3427223c27.404581-2.5253617 54.411108-6.3335211 81.01975-11.42444596l.160013-.0217644c3.068107-.25008527 5.306992 1.70702329 6.592517 5.42165436l.173137.5002931-.179246.498137c-17.047593 47.3765382-27.564471 70.958307-33.004548 72.8575439l-.240102.0838241h-.254313c-11.678061 0-29.847233-21.7916261-55.425429-65.6661002l-1.185316-2.0331824z" stroke="#000" stroke-width="3"/></g><g><path d="m274.058701 9.12772142c-2.545547 14.49730358 7.466019 31.36264268 25.113871 54.96289818 19.238364 11.2044555 33.882429 26.9939321 47.702438 36.6152224 12.11702-16.7104968 21.622757-43.8624361 28.517212-81.4558178-7.975611-7.4063965-16.735453-11.58627803-26.279526-12.53964466-36.36303 0-53.330813 0-75.053995 2.41734188z" fill="url(#f)" fill-rule="evenodd"/><path d="m273.892806 7.63692337c4.286541-.47700361 8.397784-.86127369 12.517206-1.170246 14.519627-1.08902699 25.11142-1.25629783 62.702684-1.25629783l.149094.00742811c9.881544.98707688 18.943337 5.31103895 27.151143 12.93305875l.603163.5601157-.148481.8096226c-6.931249 37.7940105-16.504727 65.1394428-28.778255 82.0657803l-.863778 1.191229-1.207611-.840722c-3.578199-2.49109-7.266896-5.4060645-12.291465-9.6296366.316512.266055-10.026031-8.5220468-13.111158-11.0585184-8.128397-6.6828512-14.984568-11.6609945-22.197681-15.8619238l-.263654-.1535524-.182719-.2443472c-20.448962-27.3461459-27.802181-42.3827917-25.389991-56.12060499l.194388-1.10707344z" stroke="#000" stroke-width="3"/></g><g><path d="m391.68406 8.675292c14.068828 28.2127245 35.80888 63.7272385 51.736683 72.7058164 10.667174-1.2904861 35.333171-35.317989 41.186748-56.4178579-13.029692-7.5202443-28.382846-18.16566904-58.292858-23.40840516-10.878882-1.25506096-33.529021-1.12179508-34.630573 7.12044666z" fill="url(#g)" fill-rule="evenodd"/><path d="m390.197279 8.47658799c.629159-4.70760972 6.126524-7.29413161 14.947122-8.41112336 6.553927-.82995301 14.843865-.75042066 21.429209.01190623 16.847976 2.95317484 29.993921 7.63792187 42.872437 14.45289884 2.684147 1.4203811 5.274304 2.8818471 8.448394 4.7427861.351796.2062546 5.922035 3.501741 7.462867 4.3910507l1.006146.5807093-.310554 1.1194236c-6.032659 21.7453893-31.066931 56.1286758-42.452005 57.5060114l-.488282.0590711-.428458-.2415234c-14.368022-8.0993219-34.852548-38.2699908-52.34245-73.34311517l-.205396-.41188969z" stroke="#000" stroke-width="3"/></g><g><path d="m490.981818 22.7326497c12.934104 29.5520814 25.553033 45.6775343 37.856788 48.3763585 4.758773 0 13.063149-11.5359333 24.913129-34.6077999-10.383493-.2654072-20.461374-1.5235608-30.233643-3.7744609s-20.617693-5.582266-32.536274-9.9940977z" fill="url(#h)" fill-rule="evenodd"/><path d="m491.502534 21.3259321c11.861555 4.3907228 22.646515 7.7035156 32.352246 9.9390897 9.673451 2.2281388 19.651385 3.4738147 29.935283 3.7366762l2.386785.0610074-1.090816 2.1238135c-12.228756 23.809343-20.588715 35.4224893-26.247426 35.4224893h-.162579l-.158805-.0348337c-12.930932-2.8363954-25.794387-19.2743214-38.909554-49.2400987l-1.415166-3.2333992z" stroke="#000" stroke-width="3"/></g></g><path d="m485.234769 780.253529c32.58777-10.313834 76.171617-17.302816 152.87325-20.627668 42.264239-1.832065 60.14274 0 85.058495 10.313834-36.557044 39.660037-34.839721 58.640697-101.439918 86.02661-23.931403 9.840562-53.100479 0-79.623281-11.57366-36.055332-14.356857-64.454328-37.528809-56.868546-64.139116z" fill="#000"/><path d="m520.353273 780.492481c28.814477-2.985162 65.334938-6.492481 82.014253-6.492481 11.53524 13.976005-6.535323 63.363269-37.876652 59.969248-19.930031 1.577718-47.960542-29.961831-44.137601-53.476767z" fill="#b1cbbd"/><ellipse cx="591" cy="801.5" fill="#fefef5" rx="23" ry="21.5"/></g></svg>